<svg xmlns="http://www.w3.org/2000/svg" width="375" height="275" version="1.0" viewBox="0 0 281.25 206.25">
    <defs>
        <clipPath id="a">
            <path d="M89 55h102v84.742H89Zm0 0" />
        </clipPath>
        <clipPath id="b">
            <path d="M172 42h42.965v32H172Zm0 0" />
        </clipPath>
        <clipPath id="c">
            <path d="M65.508 42H108v32H65.508Zm0 0" />
        </clipPath>
    </defs>
    <path fill="#009245" d="M182.156 110.375s-26.183 1.66-36.133 27.004c0 .008 29.375-5.324 36.133-27.004Zm0 0" />
    <path fill="#009245"
        d="M185.266 105.164s-47.18-19.191-64 28.785c0 0 6.87 2.727 14.097 3.438 0 0 14.57-32.828 49.399-29.625Zm0 0" />
    <path fill="#009245"
        d="M186.555 99.113s-40.68-30.734-88.79 11.559c0 0 4.641 12.058 14.227 16.527 0 0 11.168-30.922 40.192-33.765 18.609-1.93 34.37 8.175 34.37 8.175ZM161.004 45.496s4.594-11.766 15.969-15.41c0 0 1.867 13.684-13.684 21.59l-3.465-2.297s.988-2.754 1.18-3.883ZM180.063 61.883s13.171-13.938 32.093-12.074c0 0-6.945 20.793-32.617 21.859 0 0-2.34-4.559.524-9.785ZM140.234 9.031c-7.953 8.973-4.539 29.574-4.539 29.574 1.282 5.852 4.54 6.407 4.54 6.407s3.253-.555 4.535-6.407c0 0 3.417-20.601-4.536-29.574ZM119.465 45.496s-4.598-11.766-15.969-15.41c0 0-1.867 13.684 13.68 21.59l3.465-2.297s-.985-2.754-1.176-3.883ZM100.406 61.883S87.234 47.945 68.312 49.809c0 0 6.946 20.793 32.614 21.859 0 0 2.34-4.559-.52-9.785Zm0 0" />
    <path fill="#edb46a"
        d="M180.613 68.559c0 3.226-.379 6.41-1.14 9.546a40.331 40.331 0 0 1-4.215 10.563c-5.055-1.988-10.7-3.563-16.766-4.621l-2.18-19.988-16.078-6.754-16.957 7.222-1.566 19.563c-5.969 1.062-11.52 2.617-16.5 4.578a37.549 37.549 0 0 1-.856-1.559 40.512 40.512 0 0 1-4.503-18.55c0-2.137.168-4.262.5-6.371.101.039.203.082.3.117-.086-.14-.16-.282-.254-.422.27-1.637.645-3.25 1.122-4.84a39.693 39.693 0 0 1 4.96-10.66 39.202 39.202 0 0 1 2.204-3.031 21.201 21.201 0 0 0 5.73 5.386 422.866 422.866 0 0 0-3.121-8.34 33.933 33.933 0 0 1 1.566-1.523 414.212 414.212 0 0 0 6.602 6.625 21.217 21.217 0 0 0-3.582-9.152 39.457 39.457 0 0 1 2.965-2.04 39.749 39.749 0 0 1 10.355-4.601 38.74 38.74 0 0 1 3.52-.824 30.822 30.822 0 0 0 2.98 9.726c.555-2.422 1.41-6.25 2.281-10.367a35.915 35.915 0 0 1 2.254-.066c.754 0 1.504.02 2.254.066a666.844 666.844 0 0 0 2.282 10.363 30.861 30.861 0 0 0 2.972-9.73c1.196.219 2.367.496 3.52.82a40.01 40.01 0 0 1 10.355 4.602 38.083 38.083 0 0 1 2.969 2.047c-.137.187-.262.375-.383.566a21.217 21.217 0 0 0-3.2 8.582 383.811 383.811 0 0 0 6.602-6.625c.54.492 1.063 1.004 1.57 1.528a388.467 388.467 0 0 0-3.116 8.34 21.335 21.335 0 0 0 5.722-5.383c.778.972 1.52 1.988 2.203 3.039a39.776 39.776 0 0 1 4.965 10.652c.473 1.59.844 3.203 1.113 4.84-.082.14-.167.277-.25.418.094-.035.196-.074.297-.114.336 2.11.504 4.235.504 6.372Zm0 0" />
    <g clip-path="url(#a)">
        <path fill="#0e4f55"
            d="M188.465 93.426a83.267 83.267 0 0 0-12.356-6.317 89.67 89.67 0 0 0-16.117-4.914l-1.3-13.726 3.484 3.008c.36.312.765.543 1.219.691.453.152.917.21 1.394.176.477-.035.926-.16 1.352-.375a3.56 3.56 0 0 0 1.105-.864l-9.812-8.484-17.2-7.023-17.199 7.023-9.816 8.484c.308.364.68.649 1.105.864.426.215.875.336 1.352.37a3.562 3.562 0 0 0 2.61-.866l3.487-3.008-1.304 13.726a89.67 89.67 0 0 0-16.117 4.914A82.875 82.875 0 0 0 92 93.425a4.582 4.582 0 0 0-1.16 1.016 4.672 4.672 0 0 0-.824 4.387c3.785 11.766 10.695 22.145 19.5 29.363v.012l.98.781c.168.137.348.274.516.403 5.66 4.316 11.883 7.304 18.492 8.875a48.95 48.95 0 0 0 2.75.562l-.024.063 2.407.293c1.86.226 3.722.34 5.597.336 16.567 0 31.95-8.762 42.203-24.04a65.353 65.353 0 0 0 2.97-4.886c.3-.559.597-1.121.886-1.68l1.203-2.367h-.055c.176-.375.352-.754.516-1.129a91.57 91.57 0 0 0 1.203-2.91l.516-1.336-.02-.016c.274-.761.543-1.535.79-2.308h.003c.164-.5.238-1.008.227-1.531a4.575 4.575 0 0 0-.285-1.52 4.67 4.67 0 0 0-1.926-2.367Zm-62.86-27.192a1.28 1.28 0 0 1 .254-.671c.153-.2.34-.348.57-.442l13.294-5.43c.34-.136.675-.136 1.015 0l13.297 5.43a1.3 1.3 0 0 1 .57.442c.149.199.235.425.258.671l1.309 13.805a1.14 1.14 0 0 1-.07.512 1.087 1.087 0 0 1-.29.433 1.113 1.113 0 0 1-.445.258 1.118 1.118 0 0 1-.52.04 99.629 99.629 0 0 0-29.234 0 1.097 1.097 0 0 1-.515-.04 1.13 1.13 0 0 1-.738-.691 1.14 1.14 0 0 1-.07-.512Zm55.993 43.774c-.239.406-.477.812-.723 1.215l-.324.539c-.36.578-.727 1.148-1.106 1.707-7.175 10.699-17.011 17.98-27.957 20.949-.457.125-.914.238-1.37.352a46 46 0 0 1-2.778.562 42.852 42.852 0 0 1-8.418.566c-.164 0-.328-.015-.492-.023-.274-.008-.547-.02-.817-.035h-.027a48.666 48.666 0 0 1 3.371-5.64 47.972 47.972 0 0 1 8.89-9.634 47.598 47.598 0 0 1 5.348-3.812 48.214 48.214 0 0 1 5.82-3.047 48.36 48.36 0 0 1 6.184-2.215 48.22 48.22 0 0 1 6.43-1.351 47.798 47.798 0 0 1 8.137-.426 7.131 7.131 0 0 0-.168.293Zm3.66-7.457c-.196.472-.395.941-.598 1.41a64.96 64.96 0 0 1-1.043 2.242 52.866 52.866 0 0 0-3.433-.113c-19.856 0-37.914 11.472-46.399 29.34a40.74 40.74 0 0 1-3.45-.672c-.378-.082-.753-.184-1.124-.281l-.313-.086c-.27-.075-.539-.149-.808-.227l-.383-.121c-.242-.07-.484-.148-.723-.223l-.414-.14c-.23-.078-.457-.153-.687-.235a9.576 9.576 0 0 1-.43-.16c-.219-.082-.441-.156-.656-.242-.152-.055-.3-.117-.45-.176l-.632-.254c-.149-.062-.3-.125-.453-.195a14.215 14.215 0 0 1-.621-.27c-.153-.066-.305-.132-.457-.207-.2-.09-.403-.183-.602-.277a16.816 16.816 0 0 1-.46-.226c-.2-.094-.395-.196-.59-.293-.157-.079-.31-.16-.462-.243-.195-.097-.39-.199-.582-.3a17.585 17.585 0 0 1-.46-.262 19.68 19.68 0 0 1-.571-.317c-.156-.09-.312-.183-.469-.273l-.554-.336c-.157-.09-.309-.187-.465-.285-.184-.113-.364-.23-.543-.344a48.076 48.076 0 0 1-.465-.305c-.184-.117-.36-.238-.535-.355-.153-.105-.309-.215-.469-.324-.16-.114-.348-.242-.516-.364-.156-.113-.316-.226-.472-.34l-.219-.16c.305-.851.637-1.69.992-2.519.356-.832.735-1.652 1.133-2.461a49.911 49.911 0 0 1 2.668-4.707c.488-.762 1-1.508 1.527-2.238a48.855 48.855 0 0 1 1.653-2.145c.57-.703 1.16-1.387 1.765-2.055a51.994 51.994 0 0 1 1.88-1.949 49.245 49.245 0 0 1 6.25-5.175 48.029 48.029 0 0 1 4.609-2.84 48.145 48.145 0 0 1 10.02-4.055 50.567 50.567 0 0 1 5.285-1.168 48.111 48.111 0 0 1 5.387-.566c.897-.043 1.8-.063 2.706-.059a48.095 48.095 0 0 1 8.078.734 47.755 47.755 0 0 1 5.274 1.235 48.132 48.132 0 0 1 5.098 1.816 48.23 48.23 0 0 1 4.866 2.371c.79.442 1.563.903 2.325 1.387-.004 0-.004.004-.008.008Zm1.77-4.817c-.153.461-.31.922-.47 1.38a51.585 51.585 0 0 0-10.277-4.863 51.867 51.867 0 0 0-5.473-1.563 51.87 51.87 0 0 0-2.792-.551 52.667 52.667 0 0 0-2.82-.403 57.023 57.023 0 0 0-2.837-.246 53.044 53.044 0 0 0-2.843-.09c-.95-.003-1.899.02-2.848.067-.95.05-1.895.125-2.84.222a57.44 57.44 0 0 0-2.82.376 51.887 51.887 0 0 0-5.563 1.214 51.854 51.854 0 0 0-8.012 2.938 51.58 51.58 0 0 0-5.027 2.672 53.083 53.083 0 0 0-2.398 1.535 51.387 51.387 0 0 0-6.633 5.367 54.38 54.38 0 0 0-2.008 2.02 51.43 51.43 0 0 0-1.89 2.129 50.894 50.894 0 0 0-3.422 4.55c-.528.79-1.035 1.59-1.52 2.407a51.654 51.654 0 0 0-2.629 5.05 48.39 48.39 0 0 0-1.105 2.625c-7.805-6.75-13.926-16.183-17.356-26.84a1.06 1.06 0 0 1 .02-.703c.086-.23.234-.41.445-.543 13.317-8.296 29.336-12.675 46.324-12.675 16.985 0 33.004 4.382 46.328 12.675.211.13.36.313.446.543.086.235.09.47.015.707Zm0 0" />
    </g>
    <path fill="#0e4f55"
        d="M142.242.879a2.657 2.657 0 0 0-.914-.649 2.703 2.703 0 0 0-1.094-.226c-.382 0-.75.074-1.097.226a2.657 2.657 0 0 0-.914.649 34.69 34.69 0 0 0-5.61 8.027 34.72 34.72 0 0 0-2.398 6.086 34.59 34.59 0 0 0-.762 3.184 36.371 36.371 0 0 0-.46 3.242 35.239 35.239 0 0 0 0 6.543 36.17 36.17 0 0 0 .46 3.242c.203 1.074.457 2.137.762 3.184a34.492 34.492 0 0 0 2.398 6.09 35.275 35.275 0 0 0 1.614 2.847c.582.922 1.21 1.817 1.875 2.684a35.782 35.782 0 0 0 2.12 2.496c.258.277.563.496.915.648.347.153.715.227 1.097.227.38 0 .746-.074 1.094-.227a2.71 2.71 0 0 0 .914-.648c.746-.8 1.453-1.633 2.121-2.496a37.479 37.479 0 0 0 1.875-2.684 34.69 34.69 0 0 0 1.614-2.851c.496-.973.941-1.97 1.343-2.985.399-1.015.75-2.05 1.055-3.101a34.798 34.798 0 0 0 1.219-6.426c.101-1.086.156-2.176.156-3.27 0-1.093-.055-2.183-.156-3.27a34.615 34.615 0 0 0-1.219-6.429 36.138 36.138 0 0 0-1.055-3.097 35.267 35.267 0 0 0-2.957-5.836 35.8 35.8 0 0 0-1.875-2.684 34.061 34.061 0 0 0-2.12-2.496Zm2.524 37.726a677.143 677.143 0 0 1-2.282-10.363 369.078 369.078 0 0 1-1.714-8.566c-.114-.594-.965-.594-1.075 0a395.763 395.763 0 0 1-1.718 8.566 658.91 658.91 0 0 1-2.282 10.367 31.309 31.309 0 0 1-1.742-4.28 31.58 31.58 0 0 1-1.512-9.095 31.414 31.414 0 0 1 .262-4.613 31.84 31.84 0 0 1 .938-4.523 31.326 31.326 0 0 1 3.805-8.395 31.601 31.601 0 0 1 2.788-3.687 31.372 31.372 0 0 1 6.582 12.082 31.414 31.414 0 0 1-.309 18.227 30.997 30.997 0 0 1-1.737 4.28Zm0 0" />
    <g clip-path="url(#b)">
        <path fill="#0e4f55"
            d="M214.352 44.453a2.67 2.67 0 0 0-1.852-1.176 35.263 35.263 0 0 0-6.531-.414 34.598 34.598 0 0 0-6.488.816 34.01 34.01 0 0 0-3.16.86c-1.04.336-2.063.719-3.067 1.148-1.004.434-1.984.91-2.945 1.434a35.875 35.875 0 0 0-2.797 1.707 34.894 34.894 0 0 0-14.48 21.102 2.763 2.763 0 0 0 .398 2.156c.215.316.484.574.804.777.32.203.672.336 1.047.395 1.66.265 3.328.41 5.012.433h.477a34.77 34.77 0 0 0 5.836-.504 34.67 34.67 0 0 0 5.668-1.469 34.02 34.02 0 0 0 5.343-2.394 34.766 34.766 0 0 0 9.125-7.273 35.56 35.56 0 0 0 1.863-2.262 36.724 36.724 0 0 0 1.665-2.414 37.18 37.18 0 0 0 1.457-2.543 34.564 34.564 0 0 0 2.246-5.406c.3-.93.558-1.871.777-2.824a2.654 2.654 0 0 0-.398-2.149ZM198.25 64.73c-4.055 2.739-8.504 4.438-13.355 5.09 2.87-3.07 8.562-9.086 13.453-13.91.43-.422-.047-1.133-.602-.89-6.14 2.667-13.629 5.613-17.629 7.167-.101.04-.203.079-.3.114.085-.137.16-.278.253-.418a31.377 31.377 0 0 1 5.703-7.09 31.265 31.265 0 0 1 7.5-5.148 31.4 31.4 0 0 1 17.758-2.945 31.172 31.172 0 0 1-1.91 5.308 30.988 30.988 0 0 1-2.832 4.879 31.102 31.102 0 0 1-8.043 7.84Zm0 0" />
    </g>
    <path fill="#0e4f55"
        d="M179.191 26.484a2.773 2.773 0 0 0-.414-1.054 2.771 2.771 0 0 0-.808-.801 2.813 2.813 0 0 0-1.063-.402 2.768 2.768 0 0 0-1.133.062 24.818 24.818 0 0 0-7.972 3.742 24.887 24.887 0 0 0-6.184 6.27 24.884 24.884 0 0 0-2.57 4.754 24.722 24.722 0 0 0-1.34 4.406 25.091 25.091 0 0 0-.18 9.164c.082.504.282.953.602 1.348.55.668 1.262 1 2.125 1 .242 0 .476-.032.71-.09a24.922 24.922 0 0 0 7.188-3.211 24.86 24.86 0 0 0 5.832-5.281c.567-.703 1.09-1.43 1.575-2.188h-.004c.84-1.3 1.55-2.668 2.132-4.098a24.865 24.865 0 0 0 1.848-9.012 24.97 24.97 0 0 0-.344-4.609Zm-6.664 15.778a21.273 21.273 0 0 1-6.465 6.477c.754-2.114 1.91-5.235 3.11-8.34.367-.938.734-1.876 1.094-2.782.226-.562-.485-1.02-.903-.582-.574.606-1.168 1.219-1.765 1.836a383.827 383.827 0 0 1-6.602 6.625 21.268 21.268 0 0 1 3.195-8.582c.125-.191.25-.379.387-.566a21.233 21.233 0 0 1 4.902-5.094 21.202 21.202 0 0 1 6.297-3.215 21.3 21.3 0 0 1-.379 7.395 21.187 21.187 0 0 1-2.87 6.828Zm0 0" />
    <g clip-path="url(#c)">
        <path fill="#0e4f55"
            d="M107.438 69.934a33.985 33.985 0 0 0-.883-3.153 35.736 35.736 0 0 0-1.172-3.058 35.241 35.241 0 0 0-3.184-5.715 34.962 34.962 0 0 0-4.188-5.023c-.777-.77-1.585-1.5-2.429-2.196a36.315 36.315 0 0 0-2.625-1.957 34.673 34.673 0 0 0-5.742-3.137 34.485 34.485 0 0 0-3.067-1.152 35.272 35.272 0 0 0-3.16-.86 33.345 33.345 0 0 0-3.226-.558 35.05 35.05 0 0 0-3.262-.258 35.18 35.18 0 0 0-3.273.055 35.036 35.036 0 0 0-3.258.355 2.718 2.718 0 0 0-1.043.399 2.752 2.752 0 0 0-1.23 1.813c-.071.374-.063.75.023 1.12a35.09 35.09 0 0 0 1.789 5.575 34.878 34.878 0 0 0 6.222 9.875 34.575 34.575 0 0 0 6.625 5.75 33.46 33.46 0 0 0 2.504 1.527c.856.473 1.727.91 2.621 1.309a34.644 34.644 0 0 0 5.527 1.938 34.757 34.757 0 0 0 5.77.988c.977.081 1.953.124 2.93.128h.477a34.762 34.762 0 0 0 5.011-.433 2.725 2.725 0 0 0 1.848-1.176c.21-.313.355-.66.422-1.031.07-.375.062-.746-.024-1.118Zm-7.086-7.746c-4-1.56-11.48-4.5-17.625-7.168-.555-.243-1.036.464-.602.886 4.89 4.824 10.574 10.84 13.45 13.91a31.134 31.134 0 0 1-8.852-2.563 30.621 30.621 0 0 1-4.047-2.226A31.212 31.212 0 0 1 79 62.23a31.467 31.467 0 0 1-3.227-3.308 31.754 31.754 0 0 1-2.703-3.746 31.171 31.171 0 0 1-3.621-8.477A31.645 31.645 0 0 1 74 46.453a31.58 31.58 0 0 1 4.543.418c1.504.25 2.98.606 4.43 1.074a30.97 30.97 0 0 1 4.23 1.703 31.49 31.49 0 0 1 3.938 2.301 31.57 31.57 0 0 1 3.558 2.848 30.578 30.578 0 0 1 3.11 3.332 30.979 30.979 0 0 1 2.593 3.754c.09.14.168.277.254.418-.101-.035-.203-.074-.304-.114Zm0 0" />
    </g>
    <path fill="#0e4f55"
        d="M119.293 34.969a18.03 18.03 0 0 0-.445-.668 24.887 24.887 0 0 0-6.184-6.27 24.818 24.818 0 0 0-7.973-3.742 2.768 2.768 0 0 0-1.132-.062 2.712 2.712 0 0 0-1.867 1.203c-.215.32-.352.675-.419 1.054a24.97 24.97 0 0 0-.343 4.61 24.894 24.894 0 0 0 1.848 9.012 24.619 24.619 0 0 0 2.132 4.101c.485.754 1.008 1.48 1.57 2.176a24.833 24.833 0 0 0 5.836 5.289 24.793 24.793 0 0 0 7.192 3.21c.23.06.469.09.71.09.325 0 .637-.054.942-.167.305-.11.582-.27.828-.48a2.746 2.746 0 0 0 .938-1.637c.258-1.524.37-3.063.347-4.606a24.874 24.874 0 0 0-.507-4.594 24.98 24.98 0 0 0-3.473-8.52Zm-6.43 3.902c-.597-.613-1.191-1.23-1.761-1.836-.418-.437-1.13.024-.903.582.364.906.73 1.844 1.094 2.778a401.478 401.478 0 0 1 3.117 8.343 21.304 21.304 0 0 1-6.472-6.476 21.31 21.31 0 0 1-2.872-6.828 21.322 21.322 0 0 1-.379-7.399 21.331 21.331 0 0 1 6.293 3.219 21.29 21.29 0 0 1 5.29 5.66 21.268 21.268 0 0 1 3.195 8.582 414.212 414.212 0 0 1-6.602-6.625ZM146.395 67.848h-12.32c-.31 0-.61.058-.895.18a2.25 2.25 0 0 0-.758.507 2.33 2.33 0 0 0-.688 1.652V81.32c0 .313.063.61.18.899a2.371 2.371 0 0 0 1.266 1.266c.289.117.586.175.894.175h12.32a2.326 2.326 0 0 0 2.16-1.441c.122-.29.18-.586.18-.899V70.188c0-.313-.058-.61-.18-.895a2.228 2.228 0 0 0-.507-.762 2.371 2.371 0 0 0-.758-.508 2.34 2.34 0 0 0-.894-.175Zm-11.461 3.195h3.699v9.418h-3.7Zm10.597 9.418h-3.699v-9.414h3.7ZM69.453 161.879l1.39.812a.534.534 0 0 1 .282.485c0 .234-.11.375-.282.484l-1.39.797v9c0 1.86-.11 1.922-1.985 1.922-.593 0-1.047 0-1.36-.032-.874-.078-.765-.843-.765-1.78l-.047-6.063c0-.594-.03-1.094-.14-1.438-.266-.969-1.766-.844-2.781-.765-1.016.062-.907.968-.907 1.953v6.343c0 1.641-.14 1.782-1.843 1.782-1.188 0-1.782.031-2.063-.25-.25-.266-.25-.719-.25-1.985v-8.687l-1.39-.797c-.172-.11-.282-.25-.282-.484 0-.22.11-.391.281-.485l1.391-.812v-9.266c0-.875.078-1.375.25-1.547.344-.312 2.438-.281 3.11-.203.937.063.796.875.796 1.922v5.781c0 1.125-.078 1.813.313 2.203.422.375 1.64.375 2.547.235 1.047-.094.968-1.172.968-2.188v-3.11c0-1.359 0-2.405.047-3.093 0-.875.063-1.375.235-1.547.312-.312 2.406-.281 3.078-.203.937.063.797.875.797 1.781Zm-7.36-9.266v5.953c0 1.125 0 1.5.172 1.672.219.219.453.219.938.219v-5.938c0-1.047.14-1.906-.797-1.906Zm7.985 0v8.922l1.078.625h.047v-7.781c0-.907.14-1.766-.813-1.766Zm2.515 11.813-1.047-.594c-.078.14-.203.281-.39.39l-1.078.594v8.64c0 2.548 0 2.548-2.61 2.548h-.39c0 .593.14 1.047.765 1.078.313.047.766.047 1.36.047 1.718 0 2-.672 2-2.203v-8.72l1.39-.796c.172-.11.282-.25.282-.5a.571.571 0 0 0-.282-.484Zm-9.968 1.5c-.329.03-.532.312-.532 1.328v6.343c0 2.407 0 2.407-2.468 2.407h-.563c.031.453.11.703.234.875.282.281.875.25 2.063.25 1.61 0 1.844-.36 1.844-1.782v-6.343c0-.985-.094-1.89.906-1.953.187 0 .36-.047.562-.047 0-.344-.03-.594-.109-.766-.125-.312-.406-.422-1.937-.312ZM87.273 173.285c-.047-.281-.563-3.234-1.5-8.922l1.187-.703a.522.522 0 0 0 .266-.484c0-.22-.094-.391-.266-.485l-1.64-.953c-.047-.281-.563-3.344-1.532-9.125-.109-.562-.25-1.187-.5-1.437-.14-.11-.422-.172-.765-.204H79.35c-1.11 0-1.39.204-1.61 1.36a710.571 710.571 0 0 1-1.593 9.375l-1.672.984a.501.501 0 0 0-.328.485c0 .234.11.375.328.484l1.219.734c0 .032-.047.141-.047.25-.203 1.22-.688 4.172-1.532 8.922-.14 1.016-.375 1.75.594 1.781.735.032 1.64.032 2.719 0 .5 0 .766-.25.875-.765.281-1.61.453-2.547.484-2.828.22-1.782.5-1.844 2.313-1.844 0 0 .094 0 .281.031 1.219.031 1.281 1.703 1.313 2.047.078.281.109.703.171 1.234.141 1.11.188 1.641.5 1.907.141.14.344.218.688.25.281 0 2.766.11 3.078-.203.281-.25.313-.875.14-1.891Zm-1.953-20.328c-.22-.14-.313-.219-.875-.219.25 1.438.453 2.734.656 3.844.422 2.61.703 4.11.812 4.75.375.203.797.484 1.188.687-.25-1.468-.703-4.047-1.297-7.64-.11-.547-.25-1.188-.484-1.422Zm-3.532 12.656c-.062.453-2.015.484-2.015-.031 0-.11 0-.281.031-.453.11-1.469.312-2.547.562-3.219.141-.234.516-.375.735 0 .094.219.172.39.203.531 0 .11.39 1.953.453 2.578.031.313.031.532.031.594Zm-.687-.344v-.172c-.047-.359-.219-1.234-.313-1.78-.047-.141-.047-.22-.078-.313-.11.515-.203 1.218-.281 2.156v.14h.312c.141 0 .282 0 .36-.03Zm8.219 9.766c-.032-.281-.547-3.25-1.5-8.938l1.234-.687c.172-.11.266-.25.266-.5a.556.556 0 0 0-.266-.484l-1.297-.735c-.11.172-.25.36-.484.531l-.813.485c.531 3.11.906 5.406 1.156 6.765.172 1.157.25 1.563.282 1.704.203 1.296.281 2.093.031 2.375-.422.484-1.156.484-2.781.484-.14 0-.282-.031-.39-.031.062.453.14.703.343.875.14.14.36.25.703.25 2.828 0 3 0 3.453-.39.281-.25.25-.704.063-1.704Zm-7.985-4.438h-.062l-.032-.03h-.14c-.563 0-1.219 0-1.36.109-.187.14-.28.859-.312 1.14 0 .219-.11.64-.219 1.406l-.281 1.5c-.14.797-.688 1.25-1.5 1.25-.516.032-1.047.032-1.5.032h-.172c-.062.625-.031 1.047.703 1.078.735.047.906 0 1.985 0 1.156 0 1.437-.906 1.53-1.422.282-1.578.313-1.89.36-2.172.203-1.594.266-1.812 1.672-1.844-.172-1.047-.531-1.047-.672-1.047ZM103.45 173.285c-.047-.281-.562-3.234-1.5-8.922l1.188-.703a.522.522 0 0 0 .265-.484c0-.22-.093-.391-.265-.485l-1.64-.953c-.048-.281-.563-3.344-1.532-9.125-.11-.562-.25-1.187-.5-1.437-.14-.11-.422-.172-.766-.204h-3.172c-1.109 0-1.39.204-1.609 1.36a710.571 710.571 0 0 1-1.594 9.375l-1.672.984a.501.501 0 0 0-.328.485c0 .234.11.375.328.484l1.22.734c0 .032-.048.141-.048.25-.203 1.22-.687 4.172-1.531 8.922-.14 1.016-.375 1.75.594 1.781.734.032 1.64.032 2.718 0 .5 0 .766-.25.875-.765.282-1.61.454-2.547.485-2.828.219-1.782.5-1.844 2.312-1.844 0 0 .094 0 .282.031 1.218.031 1.28 1.703 1.312 2.047.078.281.11.703.172 1.234.14 1.11.187 1.641.5 1.907.14.14.344.218.687.25.282 0 2.766.11 3.079-.203.28-.25.312-.875.14-1.891Zm-1.953-20.328c-.219-.14-.312-.219-.875-.219.25 1.438.453 2.734.656 3.844.422 2.61.703 4.11.813 4.75.375.203.797.484 1.187.687-.25-1.468-.703-4.047-1.297-7.64-.109-.547-.25-1.188-.484-1.422Zm-3.531 12.656c-.063.453-2.016.484-2.016-.031 0-.11 0-.281.031-.453.11-1.469.313-2.547.563-3.219.14-.234.516-.375.734 0 .094.219.172.39.203.531 0 .11.391 1.953.454 2.578.03.313.03.532.03.594Zm-.688-.344v-.172c-.047-.359-.218-1.234-.312-1.78-.047-.141-.047-.22-.078-.313-.11.515-.203 1.218-.282 2.156v.14h.313c.14 0 .281 0 .36-.03Zm8.22 9.766c-.032-.281-.548-3.25-1.5-8.938l1.233-.687c.172-.11.266-.25.266-.5a.556.556 0 0 0-.266-.484l-1.296-.735c-.11.172-.25.36-.485.531l-.812.485c.531 3.11.906 5.406 1.156 6.765.172 1.157.25 1.563.281 1.704.203 1.296.281 2.093.031 2.375-.421.484-1.156.484-2.78.484-.141 0-.282-.031-.391-.031.062.453.14.703.343.875.141.14.36.25.703.25 2.829 0 3 0 3.454-.39.28-.25.25-.704.062-1.704Zm-7.985-4.438h-.063l-.031-.03h-.14c-.563 0-1.22 0-1.36.109-.188.14-.281.859-.313 1.14 0 .219-.109.64-.218 1.406l-.282 1.5c-.14.797-.687 1.25-1.5 1.25-.515.032-1.046.032-1.5.032h-.171c-.063.625-.032 1.047.703 1.078.734.047.906 0 1.984 0 1.156 0 1.438-.906 1.531-1.422.282-1.578.313-1.89.36-2.172.203-1.594.265-1.812 1.672-1.844-.172-1.047-.532-1.047-.672-1.047ZM116.456 150.972h-8.375c-.797 0-1.219-.078-1.5.172-.11.094-.203.313-.203.594a19.281 19.281 0 0 0 0 2.328c.031.703.265.875.968.906.141.047.422.047.797.047.703 0 1.407 0 1.75.375.313.344.313.797.313 1.985v4.437l-1.61.906a.564.564 0 0 0-.234.485c0 .25.063.422.234.531l1.61.906v8.813c0 1.047-.14 1.89.765 1.922a36.75 36.75 0 0 0 2.625 0c.829-.063.72-.875.72-2.125v-8.657l1.546-.859a.593.593 0 0 0 .281-.531c0-.203-.109-.344-.28-.485l-1.548-.875v-4.109c0-1.36-.031-1.953.39-2.344.423-.422 1.157-.375 1.845-.375.625 0 1.125 0 1.406-.25.094-.14.172-.343.172-.672.031-.265.031-.796.031-1.484 0-1.64-.063-1.64-1.703-1.64Zm2.328 1.735c0 .625-.031 1.125-.031 1.437 0 .453-.078.875-.282 1.11-.453.453-1.25.39-1.921.39-1 0-1.25.032-1.391.203-.172.141-.203.532-.203 1.891v3.719l1.11.672v-2.657c0-2.015 0-2.437.171-2.609.25-.219.531-.25 1.61-.25.703 0 1.218-.11 1.64-.516.422-.421.422-.734.422-1.75 0-1.421-.047-1.609-1.125-1.64Zm-10.64 2.937h-.032v.172c.031.688.281.875.984.906.094.032.282.032.485.032 0-.703-.078-.828-.14-.938-.141-.14-.423-.172-1.298-.172Zm8.03 8.641-1.218.703v8.266c0 1.218.172 2.61-1.328 2.75-.563.031-1.125.031-1.672.031 0 .64.094 1.047.765 1.094.829.031.938.062 1.844 0 1.297-.11 1.5-.875 1.5-2.14v-8.642l1.531-.875a.585.585 0 0 0 .282-.515c0-.219-.11-.36-.282-.5l-1-.594c-.109.188-.25.328-.421.422ZM143.511 167.707c-.047.453-.047 1.11-.047 1.922.047 1.39-.406 2.61-1.359 3.734-2.016 2.406-3.578 2.078-10.219 2.016-.375 0-.656-.11-.828-.282-.25-.28-.25-.796-.25-1.953v-8.718l-1.39-.797c-.204-.14-.282-.282-.282-.485 0-.25.078-.39.282-.53l1.39-.798v-9.203c0-.844.078-1.375.219-1.5.344-.36 1.11-.281 3.766-.25.906 0 1.64 0 2.187-.031 1.64-.047 2.969.406 4.078 1.36 2.281 1.952 3 6.655.875 9.484-.484.656-.484.937.078 1.593 1.047 1.188 1.532 2.688 1.5 4.438Zm-8.234-11.61c-.25 1.704-.453 5.094 1.984 4.282.453-.14.766-.375.985-.735.656-1.14.515-2.328.312-3.203-.219-.937-.875-1.36-1.812-1.422-.907-.078-1.328.203-1.47 1.078Zm1.422-.453c-.625-.047-.797.032-.906.938-.266 2.156.046 3.375 1.015 3.281-.031-.594 0-1.297 0-2.406 0-1.156.672-1.125.938-1.219-.203-.39-.547-.562-1.047-.594Zm5.719 6.407c-.266.421-.344.359.046.812l.344.375c.078-.062.11-.094.39-.453 1.079-1.422 1.36-3.766.907-5.781-.078-.39-.219-.532-.312-.5-.079.047 0 .187.03.562.063 1.781-.359 3.625-1.405 4.985Zm-3.891 8.062c.656-1.25.766-2.578.234-3.969-.375-1.093-1.734-1.89-2.718-1.437-.938.484-.797.937-.797 3.312 0 2.578-.172 3.11 1.047 3.172 1.078.031 1.812-.312 2.234-1.078Zm-2.203-4.844c-.485.282-.453.172-.453 2.75 0 2.61-.141 2.516.453 2.547.25 0 .422 0 .594-.031v-3.25c0-.563.062-.938.203-1.14.218-.282.359-.423.562-.5-.25-.423-.937-.594-1.36-.376Zm7.562.594c.078.344.25 1.36.25 1.875-.031.422-.031 1.078-.031 1.89.031 1.5-.453 2.891-1.5 4.141-2.266 2.688-4.156 2.313-10.719 2.235.078.703.453 1.078 1.266 1.078 6.625 0 7.984.078 10.25-2.61.703-.843 1.5-2.062 1.469-3.453 0-.797-.11-1.89-.11-2.468 0-1.094-.203-1.954-.453-2.407-.25-.422-.453-.422-.422-.28ZM158.851 173.285c-.047-.281-.562-3.234-1.5-8.922l1.188-.703a.522.522 0 0 0 .265-.484c0-.22-.093-.391-.265-.485l-1.64-.953c-.048-.281-.563-3.344-1.532-9.125-.11-.562-.25-1.187-.5-1.437-.14-.11-.422-.172-.766-.204h-3.172c-1.109 0-1.39.204-1.609 1.36a710.571 710.571 0 0 1-1.594 9.375l-1.672.984a.501.501 0 0 0-.328.485c0 .234.11.375.328.484l1.22.734c0 .032-.048.141-.048.25-.203 1.22-.687 4.172-1.531 8.922-.14 1.016-.375 1.75.594 1.781.734.032 1.64.032 2.718 0 .5 0 .766-.25.875-.765.282-1.61.454-2.547.485-2.828.219-1.782.5-1.844 2.312-1.844 0 0 .094 0 .282.031 1.218.031 1.28 1.703 1.312 2.047.078.281.11.703.172 1.234.14 1.11.187 1.641.5 1.907.14.14.344.218.687.25.282 0 2.766.11 3.079-.203.28-.25.312-.875.14-1.891Zm-1.953-20.328c-.219-.14-.312-.219-.875-.219.25 1.438.453 2.734.656 3.844.422 2.61.703 4.11.813 4.75.375.203.797.484 1.187.687-.25-1.468-.703-4.047-1.297-7.64-.109-.547-.25-1.188-.484-1.422Zm-3.531 12.656c-.063.453-2.016.484-2.016-.031 0-.11 0-.281.031-.453.11-1.469.313-2.547.563-3.219.14-.234.516-.375.734 0 .094.219.172.39.203.531 0 .11.391 1.953.454 2.578.03.313.03.532.03.594Zm-.688-.344v-.172c-.047-.359-.218-1.234-.312-1.78-.047-.141-.047-.22-.078-.313-.11.515-.203 1.218-.282 2.156v.14h.313c.14 0 .281 0 .36-.03Zm8.22 9.766c-.032-.281-.548-3.25-1.5-8.938l1.233-.687c.172-.11.266-.25.266-.5a.556.556 0 0 0-.266-.484l-1.296-.735c-.11.172-.25.36-.485.531l-.812.485c.531 3.11.906 5.406 1.156 6.765.172 1.157.25 1.563.281 1.704.203 1.296.281 2.093.031 2.375-.421.484-1.156.484-2.78.484-.141 0-.282-.031-.391-.031.062.453.14.703.343.875.141.14.36.25.703.25 2.829 0 3 0 3.454-.39.28-.25.25-.704.062-1.704Zm-7.985-4.438h-.063l-.031-.03h-.14c-.563 0-1.22 0-1.36.109-.188.14-.281.859-.313 1.14 0 .219-.109.64-.218 1.406l-.282 1.5c-.14.797-.687 1.25-1.5 1.25-.515.032-1.046.032-1.5.032h-.171c-.063.625-.032 1.047.703 1.078.734.047.906 0 1.984 0 1.156 0 1.438-.906 1.531-1.422.282-1.578.313-1.89.36-2.172.203-1.594.265-1.812 1.672-1.844-.172-1.047-.532-1.047-.672-1.047ZM170.872 171.535h1.5c.657.047.907.25.938.953.047.656.047 1.36 0 2.047-.031.281-.094.5-.234.594-.25.25-.625.25-1.75.25h-7.563c-.734 0-1.578.062-1.61-.625-.109-1.922-.03-3.25.25-3.938l2.72-6.844-.485-.28c-.187-.141-.281-.282-.281-.516 0-.22.094-.36.281-.485l1.281-.734 2.063-5.203.203-.485c.422-1.328-.875-1.25-1.844-1.25h-2.61c-.734 0-1.577.094-1.609-.812a32.514 32.514 0 0 1 0-2.469c.063-.953.938-.844 1.735-.844h7.719c1.562 0 1.703.141 1.78 1.72.063 1.358-.187 2.64-.702 3.89-.657 1.687-1.36 3.328-2.375 5.906l.484.281c.188.125.281.266.281.485 0 .234-.093.375-.28.515l-1.282.735c-.844 2.125-1.64 4.156-1.985 5.093-.28.703-.906 1.703.485 1.922.484.094 1.219.094 2.89.094Zm.735-8.75c.031.14.172.39.344.031.703-1.844 1.296-3.203 1.812-4.562a8.81 8.81 0 0 0 .703-3.907c-.031-.625-.062-.875-.172-1.078-.109-.172-.312-.25-.312.11 0 .234-.031.593-.078.968-.094.797-.344 1.61-.657 2.407-.625 1.578-1.296 3.11-2.203 5.375.25.172.453.375.563.656Zm-4.297-6.031.078-.25.203-.453c.14-.454.047-.407-1.25-.407h-2.484v.313c.047.906.875.797 1.61.797Zm4.578 7.672-.39-.204c-.172-.109-.204-.109-.422 0l-1.11.657c-.797 2.031-1.531 3.797-1.875 4.89-.187.516-.281.797-.14 1 .171.25.593.22.796.22.391-1.079 1.11-2.938 1.844-4.813l1.297-.735c.172-.14.281-.281.281-.531 0-.203-.109-.344-.28-.484Zm2.234 8.859h-.14c0 .453 0 .906-.031 1.328-.079 1.36-.875 1.39-2.625 1.39h-7.47a1.7 1.7 0 0 1 .048.485c.031.703.875.64 1.593.64h7.579c1.359 0 1.843-.64 1.953-1.546.031-.688.031-1.078.031-1.36 0-.687-.281-.906-.938-.937ZM189.219 173.285c-.047-.281-.563-3.234-1.5-8.922l1.187-.703a.522.522 0 0 0 .266-.484c0-.22-.094-.391-.266-.485l-1.64-.953c-.047-.281-.563-3.344-1.531-9.125-.11-.562-.25-1.187-.5-1.437-.141-.11-.422-.172-.766-.204h-3.172c-1.11 0-1.39.204-1.61 1.36a710.571 710.571 0 0 1-1.593 9.375l-1.672.984a.501.501 0 0 0-.328.485c0 .234.11.375.328.484l1.219.734c0 .032-.047.141-.047.25-.203 1.22-.688 4.172-1.531 8.922-.141 1.016-.375 1.75.593 1.781.735.032 1.641.032 2.72 0 .5 0 .765-.25.874-.765.281-1.61.453-2.547.485-2.828.218-1.782.5-1.844 2.312-1.844 0 0 .094 0 .281.031 1.219.031 1.282 1.703 1.313 2.047.078.281.11.703.172 1.234.14 1.11.187 1.641.5 1.907.14.14.343.218.687.25.281 0 2.766.11 3.078-.203.282-.25.313-.875.14-1.891Zm-1.953-20.328c-.219-.14-.313-.219-.875-.219.25 1.438.453 2.734.656 3.844.422 2.61.703 4.11.813 4.75.375.203.796.484 1.187.687-.25-1.468-.703-4.047-1.297-7.64-.11-.547-.25-1.188-.484-1.422Zm-3.531 12.656c-.063.453-2.016.484-2.016-.031 0-.11 0-.281.031-.453.11-1.469.313-2.547.563-3.219.14-.234.515-.375.734 0 .094.219.172.39.203.531 0 .11.39 1.953.453 2.578.032.313.032.532.032.594Zm-.688-.344v-.172c-.047-.359-.219-1.234-.312-1.78-.047-.141-.047-.22-.079-.313-.109.515-.203 1.218-.28 2.156v.14h.312c.14 0 .28 0 .359-.03Zm8.219 9.766c-.031-.281-.547-3.25-1.5-8.938l1.234-.687c.172-.11.266-.25.266-.5a.556.556 0 0 0-.266-.484l-1.297-.735c-.11.172-.25.36-.484.531l-.813.485c.532 3.11.907 5.406 1.157 6.765.172 1.157.25 1.563.28 1.704.204 1.296.282 2.093.032 2.375-.422.484-1.156.484-2.781.484-.14 0-.281-.031-.39-.031.062.453.14.703.343.875.14.14.36.25.703.25 2.828 0 3 0 3.453-.39.282-.25.25-.704.063-1.704Zm-7.985-4.438h-.062l-.031-.03h-.141c-.562 0-1.219 0-1.36.109-.187.14-.28.859-.312 1.14 0 .219-.11.64-.219 1.406l-.28 1.5c-.141.797-.688 1.25-1.5 1.25-.516.032-1.048.032-1.5.032h-.173c-.062.625-.031 1.047.703 1.078.735.047.907 0 1.985 0 1.156 0 1.437-.906 1.531-1.422.281-1.578.313-1.89.36-2.172.203-1.594.265-1.812 1.671-1.844-.172-1.047-.531-1.047-.672-1.047ZM205.396 173.285c-.046-.281-.562-3.234-1.5-8.922l1.188-.703a.522.522 0 0 0 .266-.484c0-.22-.094-.391-.266-.485l-1.64-.953c-.048-.281-.563-3.344-1.532-9.125-.11-.562-.25-1.187-.5-1.437-.14-.11-.422-.172-.766-.204h-3.171c-1.11 0-1.391.204-1.61 1.36a710.571 710.571 0 0 1-1.594 9.375l-1.671.984a.501.501 0 0 0-.329.485c0 .234.11.375.329.484l1.218.734c0 .032-.047.141-.047.25-.203 1.22-.687 4.172-1.53 8.922-.141 1.016-.376 1.75.593 1.781.734.032 1.64.032 2.719 0 .5 0 .765-.25.875-.765.28-1.61.453-2.547.484-2.828.219-1.782.5-1.844 2.313-1.844 0 0 .093 0 .28.031 1.22.031 1.282 1.703 1.313 2.047.078.281.11.703.172 1.234.14 1.11.188 1.641.5 1.907.14.14.344.218.688.25.28 0 2.765.11 3.078-.203.281-.25.312-.875.14-1.891Zm-1.953-20.328c-.218-.14-.312-.219-.875-.219.25 1.438.453 2.734.657 3.844.421 2.61.703 4.11.812 4.75.375.203.797.484 1.188.687-.25-1.468-.704-4.047-1.297-7.64-.11-.547-.25-1.188-.485-1.422Zm-3.53 12.656c-.063.453-2.017.484-2.017-.031 0-.11 0-.281.032-.453.11-1.469.312-2.547.562-3.219.14-.234.516-.375.735 0 .093.219.171.39.203.531 0 .11.39 1.953.453 2.578.031.313.031.532.031.594Zm-.688-.344v-.172c-.047-.359-.22-1.234-.313-1.78-.047-.141-.047-.22-.078-.313-.11.515-.203 1.218-.281 2.156v.14h.312c.14 0 .281 0 .36-.03Zm8.218 9.766c-.03-.281-.547-3.25-1.5-8.938l1.235-.687c.172-.11.265-.25.265-.5a.556.556 0 0 0-.265-.484l-1.297-.735c-.11.172-.25.36-.485.531l-.812.485c.531 3.11.906 5.406 1.156 6.765.172 1.157.25 1.563.281 1.704.204 1.296.282 2.093.032 2.375-.422.484-1.157.484-2.782.484-.14 0-.28-.031-.39-.031.062.453.14.703.344.875.14.14.359.25.703.25 2.828 0 3 0 3.453-.39.281-.25.25-.704.062-1.704Zm-7.984-4.438h-.063l-.03-.03h-.141c-.563 0-1.22 0-1.36.109-.187.14-.281.859-.312 1.14 0 .219-.11.64-.22 1.406l-.28 1.5c-.14.797-.688 1.25-1.5 1.25-.516.032-1.047.032-1.5.032h-.172c-.063.625-.031 1.047.703 1.078.734.047.906 0 1.984 0 1.157 0 1.438-.906 1.532-1.422.28-1.578.312-1.89.359-2.172.203-1.594.266-1.812 1.672-1.844-.172-1.047-.531-1.047-.672-1.047ZM222.652 173.457c.14.453.203.875.25 1.187.063.344-.14.672-.531.703-.938.094-1.985.094-3.14.032-.766-.11-.876-.907-1.079-1.89-.11-.517-.344-1.454-.703-2.813l-.656-2.829c-.14-.671-.313-1.578-1.328-1.437-1.016.14-.938 1.094-.97 2.172v4.906c0 1.047.141 1.86-.843 1.89-.797.032-1.64.032-2.469 0-.953-.03-.812-.874-.812-2.015v-8.86l-1.39-.765c-.173-.14-.282-.281-.282-.531 0-.203.11-.39.281-.485l1.39-.812v-9.172c0-.86.079-1.39.25-1.562.313-.313 1.329-.25 3.345-.25h1.843c.875-.032 1.89.109 3 .421 1.89.454 3.282 2.094 3.36 4.047.03.938.03 3 0 6.203 0 .813-.36 1.641-1.016 2.485-.484.594-.594 1.328-.39 2.187.312 1.125.953 3.5 1.89 7.188Zm1.781 3.625c.97-.063.875-.86.594-1.875-1.016-3.672-1.578-6.078-1.89-7.188-.563-2.015-.829-2.547-.344-3.14.656-.828 1.11-1.985 1.11-3.282 0-3.203.03-3.515 0-4.453-.032-.812-.376-1.75-.83-2.406-.17-.281-.28-.25-.28.031v.594c0 .969.03 3 0 6.234 0 .954-.39 1.922-1.157 2.86-.343.453-.421.953-.28 1.64.562 2 1.952 7.297 2.171 8.438.094.734.281 1.328-1.078 1.437-.703.063-1.469.11-2.375.063.14.594.344 1.016.906 1.094 1.14.062 2.5.031 3.453-.047Zm-6.14-16.844v-3.14c-.078-1.11-.532-1.594-1.672-1.876-.25-.03-.39-.078-.531-.109-1.954-.234-1.563.703-1.563 3.594 0 1.531.031 2.515.031 2.578 0 .594.282.953.875 1.125 1.282.312 2.516-.453 2.782-1.75.046-.203.078-.344.078-.422Zm-2.032 1.578v-1.36c0-2.796-.171-3.905.594-4.577-.203-.063-.265-.063-.86-.14-.452-.063-.671-.095-.78.077-.172.235-.063.969-.063 2.89 0 1.532.031 2.516.031 2.579 0 .562.5.625 1.078.531Zm-.718 5.235c-.36.03-.39.171-.422 1.53v4.907c0 .984.234 2.453-1.438 2.516-.515.031-1.047.031-1.562.031 0 .64.14 1.047.797 1.094.843.031 1.672.031 2.484 0 .969-.047.828-.844.828-1.89v-4.923c.031-.547 0-1.11.14-1.5l-.202-.828c-.172-.875-.25-1.016-.625-.937ZM63.757 190.376c.312 0 .61.062.89.187.282.118.524.278.735.485.207.199.367.437.484.719.125.273.188.57.188.89 0 .313-.063.61-.188.89a2.248 2.248 0 0 1-.484.735c-.211.2-.453.356-.735.469a2.29 2.29 0 0 1-.89.172l-2.078.015v3.47H60.49v-8.032Zm0 3.453c.156 0 .3-.031.437-.094a1.19 1.19 0 0 0 .375-.25c.102-.113.188-.242.25-.39.063-.145.094-.301.094-.47 0-.163-.031-.315-.094-.452a1.26 1.26 0 0 0-.625-.64.943.943 0 0 0-.437-.11h-2.078v2.406ZM70.545 198.407v-8.031h1.188v6.937h3.719v1.094ZM80.506 198.407h-1.297l3.343-8.031h1.297l3.344 8.031h-1.281l-1.047-2.515h-3.328Zm1.484-3.61h2.422l-1.203-2.89ZM98.337 190.376v8.031h-1.203l-4.485-6.156v6.156h-1.234v-8.031h1.234l4.485 6.203v-6.203ZM104.62 191.438h-2.172v-1.062h5.531v1.062h-2.187v6.97h-1.172ZM113.12 198.407h-1.297l3.344-8.031h1.296l3.344 8.031h-1.281l-1.047-2.515h-3.328Zm1.484-3.61h2.422l-1.203-2.89ZM125.623 191.438h-2.172v-1.062h5.531v1.062h-2.187v6.97h-1.172ZM135.513 191.345v6.093h.594v.97h-2.375v-.97h.594v-6.093h-.594v-.97h2.375v.97ZM144.911 190.267c.54 0 1.05.109 1.531.328.489.218.91.515 1.266.89.363.375.648.813.86 1.313.218.5.327 1.031.327 1.594 0 .562-.109 1.093-.328 1.593-.21.5-.496.938-.86 1.313a4.52 4.52 0 0 1-1.265.89c-.48.22-.996.329-1.547.329-.543 0-1.058-.11-1.547-.329a4.182 4.182 0 0 1-1.25-.89 4.252 4.252 0 0 1-.843-1.313 4.055 4.055 0 0 1-.313-1.593c0-.563.102-1.094.313-1.594.207-.5.488-.938.843-1.313a4.126 4.126 0 0 1 1.266-.89 3.741 3.741 0 0 1 1.547-.328Zm0 7.125c.383 0 .742-.079 1.078-.235.344-.156.633-.367.875-.64.25-.27.445-.586.594-.954.144-.375.219-.765.219-1.171 0-.414-.075-.805-.22-1.172a3.168 3.168 0 0 0-.593-.953 2.617 2.617 0 0 0-.875-.641 2.525 2.525 0 0 0-1.078-.234 2.5 2.5 0 0 0-1.078.234 2.784 2.784 0 0 0-.875.64c-.25.274-.45.59-.594.954a3.094 3.094 0 0 0-.219 1.172c0 .406.07.796.22 1.171.144.368.343.684.593.954.25.273.539.484.875.64a2.5 2.5 0 0 0 1.078.235ZM160.201 190.376v8.031h-1.203l-4.484-6.156v6.156h-1.235v-8.031h1.235l4.484 6.203v-6.203ZM171.278 198.407v-8.031h1.187v6.937h3.72v1.094ZM184.176 190.267c.539 0 1.05.109 1.53.328.49.218.911.515 1.266.89.364.375.649.813.86 1.313.219.5.328 1.031.328 1.594 0 .562-.11 1.093-.328 1.593-.211.5-.496.938-.86 1.313a4.52 4.52 0 0 1-1.265.89c-.48.22-.996.329-1.547.329-.543 0-1.059-.11-1.547-.329a4.182 4.182 0 0 1-1.25-.89 4.252 4.252 0 0 1-.844-1.313 4.055 4.055 0 0 1-.312-1.593c0-.563.101-1.094.312-1.594.207-.5.489-.938.844-1.313a4.126 4.126 0 0 1 1.266-.89 3.741 3.741 0 0 1 1.547-.328Zm0 7.125c.382 0 .742-.079 1.078-.235.343-.156.633-.367.875-.64.25-.27.445-.586.593-.954.145-.375.22-.765.22-1.171 0-.414-.075-.805-.22-1.172a3.168 3.168 0 0 0-.593-.953 2.617 2.617 0 0 0-.875-.641 2.525 2.525 0 0 0-1.078-.234 2.5 2.5 0 0 0-1.079.234 2.784 2.784 0 0 0-.875.64c-.25.274-.449.59-.593.954a3.094 3.094 0 0 0-.219 1.172c0 .406.07.796.219 1.171.144.368.343.684.593.954.25.273.54.484.875.64a2.5 2.5 0 0 0 1.079.235ZM196.325 197.423c.438 0 .844-.102 1.219-.313.375-.218.687-.5.937-.843l.829.796c-.368.43-.81.778-1.329 1.047a3.453 3.453 0 0 1-1.656.407c-.543 0-1.058-.11-1.547-.329a3.924 3.924 0 0 1-1.25-.89 4.252 4.252 0 0 1-.843-1.313 4.055 4.055 0 0 1-.313-1.593c0-.563.102-1.094.313-1.594.207-.5.488-.938.843-1.313.352-.375.77-.672 1.25-.89a3.741 3.741 0 0 1 1.547-.328c.5 0 .973.105 1.422.312.457.2.863.461 1.219.781l-.703.89a3.263 3.263 0 0 0-.875-.64 2.255 2.255 0 0 0-1.063-.265c-.387 0-.75.086-1.094.25a2.66 2.66 0 0 0-.875.656c-.25.281-.449.605-.593.969a3.094 3.094 0 0 0-.22 1.172c0 .418.071.812.22 1.187a3.003 3.003 0 0 0 1.468 1.61c.344.156.707.234 1.094.234ZM204.495 198.407h-1.297l3.344-8.031h1.296l3.344 8.031h-1.281l-1.047-2.515h-3.328Zm1.484-3.61h2.422l-1.203-2.89ZM215.435 198.407v-8.031h1.188v6.937h3.719v1.094Zm0 0" />
</svg>