<svg xmlns="http://www.w3.org/2000/svg" xmlns:xlink="http://www.w3.org/1999/xlink" version="1.1" x="0px" y="0px" viewBox="0 0 84.428 125.0025" enable-background="new 0 0 84.428 100.002" xml:space="preserve"><path d="M82.295,47.861c-1.425-1.793-3.489-2.422-5.174-2.388c-0.726,0.005-1.389,0.118-2.02,0.256l0.002-0.01  c0-6.113,1.472-11.739,1.472-16.929c0-5.178-3.081-14.104-12.574-15.045c0,0-6.23-17.679-42.955-12.938c0,0,3.554,2.224,4.443,3.105  c0.887,0.892,0.887,0.892,0.887,0.892S17.343,4.358,12.012,8.21c0,0,3.704,1.04,4.443,3.108c0,0-10.439,0.668-14.512,4.741  c0,0,5.182,0.59,5.182,14.067c0,4.093,1.208,10.496,3.131,15.312c-0.014,0.172-0.037,0.334-0.047,0.496  c-0.844-0.251-1.829-0.452-2.903-0.462c-1.685-0.034-3.749,0.595-5.168,2.388C0.714,49.645,0,52.2,0,55.881  c0,12.388,8.653,16.226,11.815,17.208c5.533,15.675,16.811,26.85,30.41,26.913c13.576-0.063,24.856-11.238,30.389-26.913  c3.165-0.982,11.813-4.82,11.813-17.208C84.428,52.2,83.715,49.616,82.295,47.861z M13.855,48.785  c0.133-3.641,0.538-7.159,1.133-10.54c3.583-10.054,7.991-11.45,9.835-11.45c1.85,0,8.216,1.107,12.658,1.107  c10.958,0,13.774-2.813,20.732-2.813c6.613,0,11.267,14.723,11.714,16.188c0.329,2.438,0.575,4.938,0.668,7.508l0.037,1.146  c-0.95,1.602-2.135,2.339-2.98,2.712c-0.811-5.327-5.203-9.494-10.775-9.494c-5.528,0-9.892,4.113-10.749,9.396  c-0.963-0.394-2.307-0.797-3.911-0.807c-1.6,0.01-2.946,0.413-3.909,0.807c-0.855-5.283-5.218-9.396-10.75-9.396  c-5.572,0-9.964,4.167-10.777,9.494c-0.841-0.373-2.02-1.105-2.968-2.693L13.855,48.785z M65.603,54.265  c0,4.82-3.909,8.731-8.727,8.731c-4.813,0-8.722-3.911-8.749-8.731c0.027-4.831,3.936-8.748,8.749-8.748  C61.693,45.517,65.603,49.434,65.603,54.265z M36.307,54.265c-0.027,4.82-3.938,8.731-8.75,8.731c-4.817,0-8.727-3.911-8.727-8.731  c0-4.831,3.91-8.748,8.727-8.748C32.368,45.517,36.28,49.434,36.307,54.265z M70.836,69.659l-1.115,0.187l-0.354,1.076  c-5.151,15.326-15.638,25.331-27.141,25.281c-11.503,0.05-22.013-9.955-27.135-25.281l-0.381-1.076l-1.114-0.187  c0.023-0.118-9.799-1.415-9.799-13.778c0.286-6.447,1.874-6.403,3.511-6.615c0.806-0.029,1.731,0.256,2.445,0.521  c0.711,0.28,1.21,0.59,1.234,0.57l0.532,0.319c1.587,2.973,3.934,4.113,5.123,4.511c0.494,5.675,5.099,10.181,10.916,10.181  c5.858,0,10.509-4.574,10.937-10.309c0.212-0.113,0.501-0.241,0.855-0.384c0.734-0.31,1.754-0.594,2.867-0.564  c1.117-0.029,2.135,0.255,2.872,0.564c0.349,0.143,0.641,0.271,0.854,0.384c0.428,5.734,5.076,10.309,10.934,10.309  c5.817,0,10.422-4.506,10.918-10.181c1.189-0.398,3.538-1.538,5.125-4.516l0.523-0.314c0.027-0.025,1.995-1.141,3.679-1.092  c1.663,0.212,3.226,0.138,3.513,6.615C80.634,68.244,70.836,69.541,70.836,69.659z"/><text x="0" y="115.002" fill="#000000" font-size="5px" font-weight="bold" font-family="'Helvetica Neue', Helvetica, Arial-Unicode, Arial, Sans-serif">Created by Mauro Lucchesi</text><text x="0" y="120.002" fill="#000000" font-size="5px" font-weight="bold" font-family="'Helvetica Neue', Helvetica, Arial-Unicode, Arial, Sans-serif">from the Noun Project</text></svg>