<svg xmlns="http://www.w3.org/2000/svg" xmlns:xlink="http://www.w3.org/1999/xlink" version="1.1" x="0px" y="0px" viewBox="0 0 140 175" style="enable-background:new 0 0 140 140;" xml:space="preserve"><path d="M13.170166,135h113.659668c0.5522461,0,1-0.4477539,1-1v-11.5698242c0-7.5083008-4.4902344-14.206543-11.5092773-17.0908203  L83.0300293,94.454895V84.4475708c5.8969727-3.460083,10.3081055-9.1872559,12.0214844-15.9797974  c0.3518066,0.0650635,0.7108154,0.1025391,1.0693359,0.1025391c3.5161133,0,6.3764648-3.1318359,6.3764648-6.980957  c0-3.8122559-2.7785645-8.399231-6.2526855-8.5075073c3.9206543-11.2700195,4.9920654-19.4755859,3.3464355-25.6887817  c0.671875-2.6489258,1.6386719-5.3139648,2.8037109-7.7241211c0.1704102-0.3525391,0.1191406-0.7724609-0.1308594-1.0737305  c-0.2509766-0.3017578-0.6533203-0.4301758-1.0317383-0.3261719c-1.4658203,0.3979492-2.9589844,0.659668-4.4550781,0.78125  c0.2617188-0.8657227,0.7045898-1.6689453,1.2954102-2.3339844c0.2363281-0.2661133,0.3134766-0.6376953,0.2026367-0.9760742  c-0.1113281-0.3383789-0.394043-0.5922852-0.7421875-0.6660156l-3.6577148-0.7758789  c0.2763672-0.3808594,0.5537109-0.7617188,0.8359375-1.1420898c0.2548828-0.34375,0.2626953-0.8110352,0.0200195-1.1630859  c-0.2421875-0.3520508-0.6806641-0.5102539-1.09375-0.3955078c-1.0708008,0.3007812-2.1416016,0.6015625-3.2080078,0.894043  c-0.7231445,0.2026367-1.5537109,0.2416992-1.6743164-0.1020508c-0.1132812-0.3027344,0.2734375-0.9536133,0.4594727-1.2666016  c0.1655273-0.2788086,0.1855469-0.6210938,0.0537109-0.9174805s-0.3994141-0.5102539-0.7172852-0.5737305  c-1.3823242-0.2763672-2.6240234,0.2529297-3.7480469,0.9033203c-0.3540039-1.3696289-0.6362305-2.7856445-0.8422852-4.2250977  c-0.0571289-0.3999023-0.3491211-0.7260742-0.7402344-0.8266602c-0.3916016-0.1015625-0.8041992,0.043457-1.0478516,0.3662109  c-0.9282227,1.2299805-1.9667969,2.3930664-3.0991211,3.4697266c-0.2446289-0.8432617-0.3198242-1.7353516-0.2119141-2.6025391  c0.0458984-0.3696289-0.1166992-0.7338867-0.4228516-0.9458008c-0.3066406-0.2114258-0.7041016-0.2348633-1.0336914-0.0634766  l-1.9584961,1.0209961c-0.4189453,0.2172852-0.8378906,0.4350586-1.269043,0.6601562  c0.0053711-0.2167969,0.0102539-0.4335938,0.0151367-0.6503906l0.0170898-0.7109375  c0.012207-0.4365234-0.2607422-0.8305664-0.6738281-0.9726562c-0.4125977-0.144043-0.8706055-0.0004883-1.1303711,0.3515625  c-0.6865234,0.9306641-1.3818359,1.8706055-2.0693359,2.7929688c-0.6347656,0.855957-1.2158203,1.1601562-1.3408203,1.0717773  c-0.2475586-0.1704102-0.2885742-1.0102539-0.3017578-1.2866211c-0.0166016-0.340332-0.2055664-0.6489258-0.5014648-0.8183594  c-0.2954102-0.1699219-0.6567383-0.1777344-0.9594727-0.0195312c-1.4672852,0.7636719-2.7978516,2.3813477-3.737793,3.9370117  c-1.5439453-1.3115234-3.690918-2.6181641-5.2900391-2.921875c-0.3261719-0.0615234-0.6630859,0.0429688-0.8969727,0.2788086  c-0.2338867,0.2363281-0.3354492,0.5732422-0.2700195,0.8994141c0.0551758,0.2768555,0.2231445,1.1181641,0.0224609,1.3686523  c-0.144043,0.1723633-0.8178711-0.0322266-1.5576172-0.6069336L52.810791,8.0307617  c-0.3422852-0.2626953-0.8139648-0.2763672-1.171875-0.0341797c-0.3569336,0.2426758-0.5175781,0.6875-0.3989258,1.1020508  l0.3925781,1.3574219c-1.1899414-0.21875-2.3852539-0.4433594-3.5795898-0.675293  C47.692627,9.7114258,47.3254395,9.84375,47.092041,10.1254883s-0.2939453,0.668457-0.1582031,1.0083008  c0.3305664,0.8266602,0.4833984,1.7280273,0.4526367,2.625c-1.3457031-0.6875-2.6445312-1.4990234-3.875-2.421875  c-0.3193359-0.2402344-0.7519531-0.265625-1.0981445-0.0673828c-0.3466797,0.1992188-0.5415039,0.5854492-0.4951172,0.9829102  c0.3525391,3.0332031-0.1147461,8.6445312-0.6293945,12.59375c-2.7678223,6.4163208-1.9768066,15.4265137,2.4693604,28.2341919  c-3.4729004,0.0926514-6.25354,4.6900024-6.25354,8.5089722c0,3.8491211,2.8525391,6.980957,6.3588867,6.980957  c0.3679199,0,0.7277832-0.0387573,1.0800781-0.1060181c1.7131348,6.7955933,6.1264648,12.5250244,12.0263672,15.9854736v10.005188  l-33.3598633,10.9102783c-6.949707,2.8540039-11.4399414,9.5522461-11.4399414,17.0649414V134  C12.170166,134.5522461,12.6179199,135,13.170166,135z M115.6296387,107.2148438  c6.1962891,2.5488281,10.2001953,8.5209961,10.2001953,15.215332V133h-18.2998047v-13.7167969l7.0275879-12.4187622  L115.6296387,107.2148438z M100.4973145,61.5893555c0,2.746582-1.9633789,4.980957-4.3764648,4.980957  c-0.2219238,0-0.442749-0.0251465-0.6599121-0.0626221c0.2418213-1.4172974,0.3747559-2.8712158,0.3747559-4.3563232v-7.0964966  c0.0950928,0.0065918,0.1899414,0.0169067,0.2851562,0.0169067  C98.3752441,55.0717773,100.4973145,58.7436523,100.4973145,61.5893555z M43.8635254,66.5703125  c-2.4033203,0-4.3588867-2.234375-4.3588867-4.980957c0-2.8457031,2.1137695-6.5175781,4.3588867-6.5175781  c0.1002197,0,0.197998-0.0105591,0.296875-0.017395v7.0969849c0,1.4845581,0.1328125,2.9379272,0.3745117,4.3547363  C44.317627,66.5454102,44.0961914,66.5703125,43.8635254,66.5703125z M45.2770996,51.3632812  c-3.9853516-11.8237305-4.6474609-20.0742188-2.1005859-25.8427734c0.0385742-0.0869141,0.0644531-0.1787109,0.0766602-0.2729492  c0.4350586-3.2958984,0.8408203-7.7954102,0.7783203-11.1147461c1.206543,0.7758789,2.4624023,1.456543,3.7524414,2.0327148  c0.2714844,0.1210938,0.5839844,0.1152344,0.8515625-0.0170898c0.2670898-0.1318359,0.4609375-0.3764648,0.5292969-0.6665039  c0.2646484-1.1230469,0.2944336-2.300293,0.0957031-3.4335938c0.9282227,0.1757812,1.8500977,0.3461914,2.7524414,0.5092773  c0.5498047,0.1225586,1.0043945,0.0292969,1.394043-0.3071289c0.1660156-0.1572266,0.387207-0.449707,0.4291992-0.9077148  l0.4438477,0.3417969c1.7143555,1.3310547,3.3701172,1.4472656,4.3300781,0.2875977  c0.3359375-0.418457,0.480957-0.9047852,0.5263672-1.3774414c1.3061523,0.6240234,2.8891602,1.7324219,3.8886719,2.7856445  c0.2250977,0.2368164,0.550293,0.3476562,0.875,0.3007812c0.3232422-0.0488281,0.6020508-0.2524414,0.7470703-0.5454102  c0.5610352-1.1352539,1.4243164-2.4331055,2.3520508-3.3383789c0.1674805,0.4223633,0.4321289,0.8251953,0.8554688,1.1162109  c1.2172852,0.8544922,2.7460938,0.284668,4.0864258-1.5209961c0.1152344-0.1538086,0.2299805-0.3085938,0.3452148-0.4638672  c0.1689453,0.4145508,0.4614258,0.6264648,0.6777344,0.734375c0.4316406,0.203125,0.9038086,0.1630859,1.3789062-0.1044922  c0.6733398-0.3535156,1.3491211-0.7045898,2.0249023-1.0551758l0.4804688-0.2504883  c0.1010742,1.1264648,0.4257812,2.2348633,0.9570312,3.2338867C77.947998,11.7548828,78.2053223,11.9438477,78.5041504,12  c0.2993164,0.0566406,0.6074219-0.0273438,0.8374023-0.2255859c1.0756836-0.9282227,2.0839844-1.9272461,3.0131836-2.9848633  c0.2416992,1.2202148,0.5366211,2.4169922,0.8813477,3.5761719c0.0888672,0.2988281,0.3125,0.5390625,0.6040039,0.6499023  c0.2924805,0.1108398,0.6181641,0.0786133,0.8828125-0.0859375l0.2353516-0.1469727  c0.6274414-0.3930664,1.2358398-0.7739258,1.8203125-1.0039062c-0.0756836,0.409668-0.0693359,0.8491211,0.0957031,1.2910156  c0.4902344,1.4003906,2.059082,1.9174805,4.0883789,1.3491211c0.2001953-0.0546875,0.4003906-0.1098633,0.6010742-0.1655273  c-0.15625,0.480957-0.0522461,0.855957,0.0859375,1.0981445c0.2978516,0.565918,0.8515625,0.6962891,1.1069336,0.7558594  l2.8662109,0.6074219c-0.578125,1.0029297-0.9492188,2.1342773-1.0717773,3.2993164  c-0.0297852,0.2866211,0.0649414,0.5727539,0.2612305,0.7841797c0.1958008,0.2114258,0.4799805,0.3320312,0.7617188,0.3198242  c1.3950195-0.0395508,2.793457-0.1923828,4.1772461-0.4560547c-0.8842773,2.090332-1.6225586,4.3046875-2.1640625,6.5024414  c-0.0415039,0.1669922-0.0385742,0.3422852,0.0078125,0.5083008c1.5786133,5.6494141,0.6679688,13.2202148-2.8720703,23.6972656  c-0.5927734-1.8637695-0.7749023-4.0805664-0.5708008-6.7954102c0.1987305-2.5527344-0.8979492-4.9765625-2.934082-6.4838867  c-1.2431641-0.9204102-2.7128906-1.394043-4.2041016-1.394043c-0.8774414,0-1.7626953,0.1640625-2.612793,0.4980469  c-6.7333984,2.6572266-11.7128906,4.0620117-14.4008789,4.0620117c-2.6816406,0-7.6645508-1.4047852-14.4111328-4.0625  c-2.2885742-0.8999023-4.8344727-0.5664062-6.8110352,0.8955078c-2.0390625,1.5083008-3.1376953,3.9321289-2.9389648,6.4848633  C46.0495605,47.2797852,45.8703613,49.4941406,45.2770996,51.3632812z M46.1604004,62.1513672v-7.8349609  c1.4567871-2.6036377,1.994751-5.7555542,1.6728516-9.8969727c-0.1450195-1.8608398,0.652832-3.6259766,2.1342773-4.7211914  c1.4384766-1.0649414,3.2216797-1.2983398,4.8886719-0.6430664c7.0771484,2.7880859,12.1723633,4.2016602,15.144043,4.2016602  c2.9785156,0,8.0708008-1.4135742,15.1333008-4.2011719c1.6723633-0.65625,3.4560547-0.4223633,4.8945312,0.6425781  c1.4785156,1.0947266,2.2749023,2.859375,2.1298828,4.7241211c-0.3120117,4.1524658,0.2277832,7.3015137,1.6777344,9.8866577  v7.8423462c0,13.144043-10.6933594,23.8374023-23.8374023,23.8374023S46.1604004,75.2954102,46.1604004,62.1513672z   M81.0300293,85.5093384v10.3207397c0,2.9443359-1.1459961,5.7119141-3.2255859,7.7910156  c-2.0917969,2.0825195-4.8632812,3.2290039-7.8041992,3.2290039c-6.0820312,0-11.0302734-4.9482422-11.0302734-11.0302734  V85.5110474c3.3469238,1.5864868,7.0849609,2.4777222,11.0283203,2.4777222  C73.9429932,87.9887695,77.682251,87.0969238,81.0300293,85.5093384z M57.0068359,96.5473022  c0.3808594,6.8459473,6.0539551,12.3027954,12.9934082,12.3027954c3.4731445,0,6.7460938-1.3535156,9.2167969-3.8129883  c2.2884521-2.2879639,3.604248-5.2816772,3.7780762-8.4893188l29.623291,9.6828003l-6.9584961,12.2967529  c-0.0854492,0.1503906-0.1298828,0.3203125-0.1298828,0.4926758V133H34.4699707v-13.9799805  c0-0.1723633-0.0444336-0.3422852-0.1298828-0.4926758l-6.9571533-12.2944336L57.0068359,96.5473022z M14.170166,122.4301758  c0-6.6982422,4.003418-12.6704102,10.1303711-15.1894531l1.1433105-0.3738403l7.026123,12.4163208V133H14.170166V122.4301758z"/><text x="0" y="155" fill="#000000" font-size="5px" font-weight="bold" font-family="'Helvetica Neue', Helvetica, Arial-Unicode, Arial, Sans-serif">Created by DinosoftLabs</text><text x="0" y="160" fill="#000000" font-size="5px" font-weight="bold" font-family="'Helvetica Neue', Helvetica, Arial-Unicode, Arial, Sans-serif">from the Noun Project</text></svg>