<?xml version="1.0" standalone="no"?>
<!DOCTYPE svg PUBLIC "-//W3C//DTD SVG 20010904//EN"
 "http://www.w3.org/TR/2001/REC-SVG-20010904/DTD/svg10.dtd">
<svg version="1.0" xmlns="http://www.w3.org/2000/svg"
 width="400.000000pt" height="400.000000pt" viewBox="0 0 400.000000 400.000000"
 preserveAspectRatio="xMidYMid meet">
<metadata>
Created by potrace 1.14, written by Peter Selinger 2001-2017
</metadata>
<g transform="translate(0.000000,400.000000) scale(0.100000,-0.100000)"
fill="#000000" stroke="none">
<path d="M1928 3730 c-94 -98 -164 -228 -204 -380 -17 -68 -22 -110 -20 -206
l1 -121 -45 -13 c-25 -7 -86 -32 -137 -56 l-92 -42 -39 44 c-105 121 -327 233
-394 200 -89 -44 -47 -361 68 -512 13 -17 24 -36 24 -43 0 -7 -15 -38 -33 -69
-18 -31 -46 -88 -62 -127 l-28 -70 -76 76 c-112 111 -229 182 -383 233 -102
33 -134 38 -281 41 -223 5 -252 -20 -197 -173 93 -253 289 -448 550 -545 83
-32 208 -57 287 -58 l62 -2 6 -41 c11 -61 54 -194 82 -249 13 -27 23 -50 21
-51 -2 -2 -28 -14 -58 -27 -126 -54 -286 -142 -305 -167 -32 -44 -25 -102 29
-222 108 -245 251 -439 446 -606 47 -40 194 -136 255 -167 131 -66 307 -120
429 -134 81 -9 277 -9 346 0 490 66 916 410 1131 912 60 141 61 190 5 237 -26
22 -209 116 -289 148 -31 13 -56 26 -54 29 34 62 81 194 99 282 10 49 15 57
32 56 46 -3 178 15 247 34 206 57 384 178 511 348 62 82 129 232 135 301 5 55
4 59 -23 76 -24 16 -48 19 -164 19 -74 0 -153 -3 -175 -8 -211 -41 -372 -124
-517 -268 -72 -71 -77 -75 -83 -52 -8 35 -53 129 -86 183 -35 57 -35 63 -5
103 78 106 111 211 111 359 0 107 -2 119 -21 139 -29 28 -76 27 -153 -4 -113
-46 -216 -119 -278 -200 l-22 -28 -63 32 c-35 18 -97 44 -138 59 l-74 26 3 96
c6 223 -76 448 -219 600 -73 76 -95 77 -162 8z m124 -107 c73 -98 126 -216
149 -328 27 -136 6 -325 -50 -445 l-21 -45 6 50 c18 139 6 432 -20 473 -3 4
-7 21 -10 35 -7 38 -50 126 -79 162 l-25 29 -34 -54 c-42 -69 -53 -94 -73
-171 -28 -108 -37 -286 -22 -443 8 -84 -2 -76 -37 28 -61 185 -49 386 36 566
33 71 117 189 133 190 6 0 27 -21 47 -47z m-906 -595 c128 -63 243 -196 285
-330 9 -32 16 -58 14 -58 -2 0 -15 21 -31 48 -70 121 -186 233 -296 285 -59
28 -68 35 -68 60 0 35 15 35 96 -5z m1816 7 c5 -22 -1 -28 -38 -45 -114 -50
-225 -149 -306 -272 -53 -79 -59 -77 -26 9 45 124 147 237 269 300 77 40 95
41 101 8z m-2552 -459 c160 -42 287 -110 392 -210 70 -66 127 -136 110 -136
-6 0 -12 4 -14 8 -2 5 -39 34 -84 65 -183 128 -386 201 -592 212 -46 3 -88 7
-92 10 -15 9 -22 58 -9 66 21 13 221 2 289 -15z m3491 15 c3 0 1 -17 -5 -36
-8 -24 -17 -35 -31 -35 -11 -1 -49 -3 -85 -5 -59 -4 -81 -7 -158 -21 -125 -23
-331 -119 -452 -210 -39 -30 -74 -54 -76 -54 -8 0 55 79 94 118 119 121 309
216 472 238 25 3 47 8 49 10 3 3 175 -1 192 -5z m-1697 -401 c99 -38 183 -75
187 -82 5 -7 9 -24 10 -38 0 -14 2 -34 4 -45 4 -26 14 -131 21 -224 5 -54 3
-76 -7 -81 -11 -7 -62 -5 -114 5 -11 2 -32 4 -46 4 l-25 1 -1 128 c-1 176 0
170 -25 184 -28 15 -362 19 -396 4 -31 -13 -36 -40 -35 -188 1 -124 0 -128
-21 -129 -29 -1 -64 -5 -111 -12 -64 -9 -68 -2 -60 94 4 46 8 98 10 114 2 17
7 64 11 105 3 41 8 78 10 81 2 3 47 23 101 44 54 21 134 53 178 71 44 18 91
33 105 33 14 1 106 -30 204 -69z m-243 -227 c0 -7 0 -56 0 -108 0 -52 0 -99 0
-105 -1 -5 -23 -10 -49 -10 l-48 0 0 115 c-1 108 1 114 20 117 47 7 76 3 77
-9z m166 8 c22 -1 23 -4 22 -116 l0 -115 -50 0 -49 0 0 114 c0 116 4 127 40
120 8 -1 25 -3 37 -3z m158 -335 c45 -6 125 -18 210 -32 71 -11 238 -55 340
-89 131 -43 413 -177 421 -200 4 -9 3 -24 -2 -35 -8 -17 -15 -15 -83 25 -192
113 -420 184 -711 221 -66 8 -282 7 -354 -1 -28 -4 -65 -8 -83 -10 -250 -30
-550 -142 -823 -308 -71 -43 -241 -162 -279 -196 -13 -12 -25 -21 -27 -21 -15
0 -144 281 -144 314 0 28 251 152 435 214 87 29 218 65 280 76 144 27 194 34
275 42 36 4 66 8 68 9 6 5 428 -3 477 -9z m378 -280 c102 -11 245 -44 329 -76
91 -36 218 -102 218 -114 0 -7 -6 -20 -13 -30 -13 -17 -16 -17 -88 2 -86 24
-218 49 -304 57 -70 7 -269 8 -305 1 -14 -2 -59 -10 -100 -16 -361 -58 -652
-283 -830 -640 -29 -58 -54 -106 -55 -108 -10 -11 -215 110 -215 127 0 23 83
181 135 256 68 98 224 250 325 317 195 129 413 208 625 225 38 3 71 6 72 7 5
4 143 -2 206 -8z m453 -375 c-3 -4 -23 -11 -43 -15 -71 -11 -91 -16 -179 -41
-285 -82 -543 -281 -675 -520 l-39 -71 -52 -4 c-116 -6 -188 -6 -188 3 0 17
111 174 167 236 229 253 588 415 931 420 46 0 81 -3 78 -8z"/>
</g>
</svg>
